<?xml version="1.0" encoding="UTF-8"?>
<!-- Generator: Adobe Illustrator 28.3.0, SVG Export Plug-In . SVG Version: 6.00 Build 0)  -->
<svg xmlns="http://www.w3.org/2000/svg" xmlns:xlink="http://www.w3.org/1999/xlink" version="1.1" id="a" x="0px" y="0px" width="1000px" height="1000px" viewBox="0 0 1000 1000" style="enable-background:new 0 0 1000 1000;" xml:space="preserve">
<style type="text/css">
	.st0{fill:#F5F0E5;}
</style>
<polygon class="st0" points="500,950 892,725 629,575 760,500 760,350 500,200 240,350 240,650 500,800 500,650 370,575 500,500   368,425 500,350 630,425 500,500 500,650 698,760 500,875 174,688 174,312 500,125 826,312 826,612 892,648 892,275 500,50 108,275   108,725 "></polygon>
</svg>
